<?xml version="1.0" encoding="UTF-8" standalone="no"?><!DOCTYPE svg PUBLIC "-//W3C//DTD SVG 1.1//EN" "http://www.w3.org/Graphics/SVG/1.1/DTD/svg11.dtd"><svg width="100%" height="100%" viewBox="0 0 1500 820" version="1.1" xmlns="http://www.w3.org/2000/svg" xmlns:xlink="http://www.w3.org/1999/xlink" xml:space="preserve" xmlns:serif="http://www.serif.com/" style="fill-rule:evenodd;clip-rule:evenodd;stroke-linecap:round;stroke-linejoin:round;stroke-miterlimit:1.5;"><g id="Title"><g transform="matrix(36,0,0,36,1002.7,38.0683)"></g><text x="495.498px" y="38.068px" style="font-family:'Akrobat-Black', 'Akrobat';font-weight:900;font-size:36px;">UA<tspan x="531.714px " y="38.068px ">V</tspan> S<tspan x="573.474px 590.61px 606.63px " y="38.068px 38.068px 38.068px ">now</tspan> D<tspan x="655.95px " y="38.068px ">e</tspan>pth Analysi<tspan x="825.258px " y="38.068px ">s</tspan> – W<tspan x="897.33px " y="38.068px ">o</tspan>rkflo<tspan x="978.726px " y="38.068px ">w</tspan></text><text x="567.895px" y="61.392px" style="font-family:'SegoeUI', 'Segoe UI', sans-serif;font-size:13px;">Zugspitze · Summer DSM 2025-08-20 · Winte<tspan x="826.696px " y="61.392px ">r</tspan> DSM 2026-01-17</text></g><g id="_1.-Input-Data" serif:id="1. Input Data"><path d="M36,85l208,0c3.313,0 6,4.318 6,9.643l0,25.714c0,5.325 -2.687,9.643 -6,9.643l-208,0c-3.313,0 -6,-4.318 -6,-9.643l0,-25.714c0,-5.325 2.687,-9.643 6,-9.643Z" style="fill:#005f73;fill-rule:nonzero;"/><g transform="matrix(24,0,0,24,194.48,113.74)"></g><text x="86.168px" y="113.74px" style="font-family:'Akrobat-Black', 'Akrobat';font-weight:900;font-size:24px;fill:#fff;">1 Input D<tspan x="164.264px " y="113.74px ">a</tspan>ta</text><path d="M40,168.5l200,-0c5.523,-0 10,5.037 10,11.25l0,67.5c0,6.213 -4.477,11.25 -10,11.25l-200,-0c-5.523,-0 -10,-5.037 -10,-11.25l0,-67.5c0,-6.213 4.477,-11.25 10,-11.25Z" style="fill:#005f73;fill-rule:nonzero;"/><g transform="matrix(20,0,0,20,191.05,195.584)"></g><text x="89.81px" y="195.584px" style="font-family:'Akrobat-ExtraBold', 'Akrobat';font-weight:800;font-size:20px;fill:#fff;">Summer DS<tspan x="176.89px " y="195.584px ">M</tspan></text><g transform="matrix(15,0,0,15,204.402,218.735)"></g><text x="75.718px" y="218.735px" style="font-family:'Akrobat-Bold', 'Akrobat';font-weight:700;font-size:15px;fill:#fff;">2025-08-20 · 10 cm r<tspan x="188.427px " y="218.735px ">e</tspan>s.</text><g transform="matrix(12,0,0,12,183.943,240.069)"></g><text x="98.515px" y="240.069px" style="font-family:'Akrobat-SemiBold', 'Akrobat';font-weight:600;font-size:12px;fill:#fff;">sno<tspan x="114.283px " y="240.069px ">w</tspan>-free baseline</text><path d="M40,273.5l200,-0c5.523,-0 10,5.037 10,11.25l0,67.5c0,6.213 -4.477,11.25 -10,11.25l-200,-0c-5.523,-0 -10,-5.037 -10,-11.25l0,-67.5c0,-6.213 4.477,-11.25 10,-11.25Z" style="fill:#005f73;fill-rule:nonzero;"/><g transform="matrix(20,0,0,20,185.51,301.237)"></g><text x="95.69px" y="301.237px" style="font-family:'Akrobat-ExtraBold', 'Akrobat';font-weight:800;font-size:20px;fill:#fff;">Winter DS<tspan x="171.35px " y="301.237px ">M</tspan></text><g transform="matrix(15,0,0,15,206.229,324.237)"></g><text x="83.139px" y="324.237px" style="font-family:'Akrobat-Bold', 'Akrobat';font-weight:700;font-size:15px;fill:#fff;">2026-01-17 · 10 cm r<tspan x="190.254px " y="324.237px ">e</tspan>s.</text><g transform="matrix(12,0,0,12,174.208,345.237)"></g><text x="106.96px" y="345.237px" style="font-family:'Akrobat-SemiBold', 'Akrobat';font-weight:600;font-size:12px;fill:#fff;">full sno<tspan x="139.42px " y="345.237px ">w</tspan> co<tspan x="160.036px " y="345.237px ">v</tspan>er</text></g><g id="_2a.-Snow-Depth" serif:id="2a. Snow Depth"><path d="M271,85l208,0c3.313,0 6,4.318 6,9.643l0,25.714c0,5.325 -2.687,9.643 -6,9.643l-208,0c-3.313,0 -6,-4.318 -6,-9.643l0,-25.714c0,-5.325 2.687,-9.643 6,-9.643Z" style="fill:#0a9396;fill-rule:nonzero;"/><g transform="matrix(24,0,0,24,442.536,114.04)"></g><text x="307.992px" y="114.04px" style="font-family:'Akrobat-Black', 'Akrobat';font-weight:900;font-size:24px;fill:#fff;">2a S<tspan x="345.744px 357.168px 367.848px " y="114.04px 114.04px 114.04px ">now</tspan> D<tspan x="400.728px " y="114.04px ">e</tspan>pth</text><path d="M275,168.5l200,-0c5.522,-0 10,5.372 10,12l0,66c0,6.628 -4.478,12 -10,12l-200,-0c-5.523,-0 -10,-5.372 -10,-12l0,-66c0,-6.628 4.477,-12 10,-12Z" style="fill:#0a9396;fill-rule:nonzero;"/><g transform="matrix(20,0,0,20,440.8,203.668)"></g><text x="308.96px" y="203.668px" style="font-family:'Akrobat-ExtraBold', 'Akrobat';font-weight:800;font-size:20px;fill:#fff;">DS<tspan x="328.5px " y="203.668px ">M</tspan> Differenc<tspan x="417.34px " y="203.668px ">i</tspan>ng</text><g transform="matrix(15,0,0,15,452.955,231.433)"></g><text x="297.99px" y="231.433px" style="font-family:'Akrobat-Bold', 'Akrobat';font-weight:700;font-size:15px;fill:#fff;">Winter DS<tspan x="353.85px " y="231.433px ">M</tspan> − Summer DS<tspan x="442.635px " y="231.433px ">M</tspan></text><path d="M384.375,275.777l-18.75,-0l9.375,25l9.375,-25Z" style="fill:#0a9396;fill-rule:nonzero;"/><path d="M275,318.5l200,-0c5.522,-0 10,6.199 10,13.846l0,62.308c0,7.647 -4.478,13.846 -10,13.846l-200,-0c-5.523,-0 -10,-6.199 -10,-13.846l0,-62.308c0,-7.647 4.477,-13.846 10,-13.846Z" style="fill:#0a9396;fill-rule:nonzero;"/><g transform="matrix(20,0,0,20,445.15,353.705)"></g><text x="305.39px" y="353.705px" style="font-family:'Akrobat-ExtraBold', 'Akrobat';font-weight:800;font-size:20px;fill:#fff;">S<tspan x="314.71px 324.17px 333.03px " y="353.705px 353.705px 353.705px ">now</tspan> D<tspan x="360.27px " y="353.705px ">e</tspan>pth Model</text><g transform="matrix(12,0,0,12,423.588,378.177)"></g><text x="326.184px" y="378.177px" style="font-family:'Akrobat-SemiBold', 'Akrobat';font-weight:600;font-size:12px;fill:#fff;">sno<tspan x="341.952px 348.852px " y="378.177px 378.177px ">w_</tspan>dep<tspan x="370.02px " y="378.177px ">t</tspan>h_model.tif</text></g><g id="_2b.-Topographic-Indices" serif:id="2b. Topographic Indices"><path d="M506,85l298,0c3.313,0 6,4.318 6,9.643l0,25.714c0,5.325 -2.687,9.643 -6,9.643l-298,0c-3.313,0 -6,-4.318 -6,-9.643l0,-25.714c0,-5.325 2.687,-9.643 6,-9.643Z" style="fill:#94d2bd;fill-rule:nonzero;"/><path d="M514.091,168.5l281.818,-0c7.781,-0 14.091,5.372 14.091,12l0,66c0,6.628 -6.31,12 -14.091,12l-281.818,-0c-7.782,-0 -14.091,-5.372 -14.091,-12l0,-66c0,-6.628 6.309,-12 14.091,-12Z" style="fill:#94d2bd;fill-rule:nonzero;"/><path d="M664.375,275.777l-18.75,-0l9.375,25l9.375,-25Z" style="fill:#94d2bd;fill-rule:nonzero;"/><g transform="matrix(24,0,0,24,760.744,114.268)"></g><text x="549.184px" y="114.268px" style="font-family:'Akrobat-Black', 'Akrobat';font-weight:900;font-size:24px;fill:#fff;">2b T<tspan x="585.232px " y="114.268px ">o</tspan>pographic Indices</text><g transform="matrix(20,0,0,20,689.64,220.86)"></g><text x="620.24px" y="220.86px" style="font-family:'Akrobat-ExtraBold', 'Akrobat';font-weight:800;font-size:20px;fill:#fff;">whitebo<tspan x="681.18px " y="220.86px ">x</tspan></text><path d="M736.799,318.5l-74.686,-0c-3.928,-0 -7.113,3.582 -7.113,8l0,39c0,4.418 3.185,8 7.113,8l74.686,-0c3.928,-0 7.113,-3.582 7.113,-8l0,-39c0,-4.418 -3.185,-8 -7.113,-8Z" style="fill:#abe2eb;fill-rule:nonzero;"/><path d="M637,318.5l-129,-0c-4.418,-0 -8,3.582 -8,8l0,39c0,4.418 3.582,8 8,8l129,-0c4.418,-0 8,-3.582 8,-8l0,-39c0,-4.418 -3.582,-8 -8,-8Z" style="fill:#abe2eb;fill-rule:nonzero;"/><g transform="matrix(20,0,0,20,623.54,343.54)"></g><text x="522.46px" y="343.54px" style="font-family:'Akrobat-ExtraBold', 'Akrobat';font-weight:800;font-size:20px;fill:#fff;">T<tspan x="531.1px 541.12px " y="343.54px 343.54px ">PI</tspan> (3 scales)</text><g transform="matrix(12,0,0,12,609.79,361.2)"></g><text x="535.306px" y="361.2px" style="font-family:'Akrobat-SemiBold', 'Akrobat';font-weight:600;font-size:12px;fill:#fff;">5 m · 25 m · 50 m</text><path d="M509.725,388.5l290.55,-0c5.37,-0 9.725,3.582 9.725,8l-0,39c-0,4.418 -4.355,8 -9.725,8l-290.55,-0c-5.37,-0 -9.725,-3.582 -9.725,-8l-0,-39c-0,-4.418 4.355,-8 9.725,-8Z" style="fill:#abe2eb;fill-rule:nonzero;"/><path d="M509.725,456.167l290.55,-0c5.37,-0 9.725,3.582 9.725,8l-0,39c-0,4.418 -4.355,8 -9.725,8l-290.55,-0c-5.37,-0 -9.725,-3.582 -9.725,-8l-0,-39c-0,-4.418 4.355,-8 9.725,-8Z" style="fill:#abe2eb;fill-rule:nonzero;"/><g transform="matrix(20,0,0,20,769.93,413.54)"></g><text x="541.29px" y="413.54px" style="font-family:'Akrobat-ExtraBold', 'Akrobat';font-weight:800;font-size:20px;fill:#fff;">Windw<tspan x="592.85px " y="413.54px ">a</tspan>rd Index (2 directions)</text><g transform="matrix(20,0,0,20,773.32,481.207)"></g><text x="536.34px" y="481.207px" style="font-family:'Akrobat-ExtraBold', 'Akrobat';font-weight:800;font-size:20px;fill:#fff;">Directional Relief (4 dir<tspan x="711.02px " y="481.207px ">e</tspan>ctions)</text><g transform="matrix(12,0,0,12,692.18,432.079)"></g><text x="617.48px" y="432.079px" style="font-family:'Akrobat-SemiBold', 'Akrobat';font-weight:600;font-size:12px;fill:#fff;">E (90°) · S<tspan x="660.02px " y="432.079px ">E</tspan> (135°)</text><g transform="matrix(12,0,0,12,739.822,499.507)"></g><text x="570.706px" y="499.507px" style="font-family:'Akrobat-SemiBold', 'Akrobat';font-weight:600;font-size:12px;fill:#fff;">SW (225°) · W (270°) · E (90°) · S<tspan x="707.662px " y="499.507px ">E</tspan> (135°)</text><path d="M763.883,318.5l36.146,-0c5.506,-0 9.971,3.582 9.971,8l0,39c0,4.418 -4.465,8 -9.971,8l-36.146,-0c-5.506,-0 -9.971,-3.582 -9.971,-8l0,-39c0,-4.418 4.465,-8 9.971,-8Z" style="fill:#abe2eb;fill-rule:nonzero;"/><g transform="matrix(20,0,0,20,802.806,342.4)"></g><text x="761.306px" y="342.4px" style="font-family:'Akrobat-ExtraBold', 'Akrobat';font-weight:800;font-size:20px;fill:#fff;">S<tspan x="770.626px " y="342.4px ">l</tspan>ope</text><g transform="matrix(20,0,0,20,725.706,342.4)"></g><text x="673.666px" y="342.4px" style="font-family:'Akrobat-ExtraBold', 'Akrobat';font-weight:800;font-size:20px;fill:#fff;">Aspect</text></g><g id="_3.-Feature-Engineering" serif:id="3. Feature Engineering"><path d="M831,85l208,0c3.313,0 6,4.318 6,9.643l0,25.714c0,5.325 -2.687,9.643 -6,9.643l-208,0c-3.313,0 -6,-4.318 -6,-9.643l0,-25.714c0,-5.325 2.687,-9.643 6,-9.643Z" style="fill:#ee9b00;fill-rule:nonzero;"/><g transform="matrix(24,0,0,24,1035.92,114.268)"></g><text x="835.016px" y="114.268px" style="font-family:'Akrobat-Black', 'Akrobat';font-weight:900;font-size:24px;fill:#fff;">3 F<tspan x="860.072px " y="114.268px ">e</tspan>ature Engineering</text><path d="M834.922,168.5l200,-0c5.522,-0 10,5.037 10,11.25l-0,67.5c-0,6.212 -4.478,11.25 -10,11.25l-200,-0c-5.522,-0 -10,-5.038 -10,-11.25l-0,-67.5c-0,-6.213 4.478,-11.25 10,-11.25Z" style="fill:#ee9b00;fill-rule:nonzero;"/><g transform="matrix(20,0,0,20,990.13,203.48)"></g><text x="879.63px" y="203.48px" style="font-family:'Akrobat-ExtraBold', 'Akrobat';font-weight:800;font-size:20px;fill:#fff;">P<tspan x="889.73px 894.25px 902.49px " y="203.48px 203.48px 203.48px ">ixe</tspan>l Sampling</text><g transform="matrix(12,0,0,12,989.246,222.356)"></g><text x="881.102px" y="222.356px" style="font-family:'Akrobat-SemiBold', 'Akrobat';font-weight:600;font-size:12px;fill:#fff;">stratified b<tspan x="930.17px " y="222.356px ">y</tspan> sno<tspan x="953.426px " y="222.356px ">w</tspan> dep<tspan x="979.97px " y="222.356px ">t</tspan>h</text><g transform="matrix(12,0,0,12,995.87,240.125)"></g><text x="873.602px" y="240.125px" style="font-family:'Akrobat-SemiBold', 'Akrobat';font-weight:600;font-size:12px;fill:#fff;">n = 6,000,000 p<tspan x="940.49px " y="240.125px ">x</tspan> · 10 deciles</text><path d="M944.297,275.777l-18.75,-0l9.375,25l9.375,-25Z" style="fill:#ee9b00;fill-rule:nonzero;"/><path d="M835.059,318.5l200,-0c5.522,-0 10,6.717 10,15l-0,105c-0,8.283 -4.478,15 -10,15l-200,-0c-5.522,-0 -10,-6.717 -10,-15l-0,-105c-0,-8.283 4.478,-15 10,-15Z" style="fill:#ee9b00;fill-rule:nonzero;"/><g transform="matrix(20,0,0,20,1004.04,342.4)"></g><text x="865.802px" y="342.4px" style="font-family:'Akrobat-ExtraBold', 'Akrobat';font-weight:800;font-size:20px;fill:#fff;">F<tspan x="873.882px " y="342.4px ">e</tspan>ature Matrix (X)</text><g transform="matrix(15,0,0,15,950.531,362.137)"></g><text x="919.751px" y="362.137px" style="font-family:'Akrobat-Bold', 'Akrobat';font-weight:700;font-size:15px;fill:#fff;">Slope</text><g transform="matrix(15,0,0,15,995.507,383.696)"></g><text x="874.877px" y="383.696px" style="font-family:'Akrobat-Bold', 'Akrobat';font-weight:700;font-size:15px;fill:#fff;">TP<tspan x="888.497px " y="383.696px ">I</tspan> 5 m / 25 m / 50 m</text><g transform="matrix(15,0,0,15,961.069,404.397)"></g><text x="909.514px" y="404.397px" style="font-family:'Akrobat-Bold', 'Akrobat';font-weight:700;font-size:15px;fill:#fff;">WI E / S<tspan x="954.154px " y="404.397px ">E</tspan></text><g transform="matrix(15,0,0,15,1001.9,425.377)"></g><text x="867.739px" y="425.377px" style="font-family:'Akrobat-Bold', 'Akrobat';font-weight:700;font-size:15px;fill:#fff;">Dir. Rel. S<tspan x="920.284px " y="425.377px ">W</tspan> / W / E / S<tspan x="994.984px " y="425.377px ">E</tspan></text><g transform="matrix(12,0,0,12,993.806,447.008)"></g><text x="876.71px" y="447.008px" style="font-family:'Akrobat-SemiBold', 'Akrobat';font-weight:600;font-size:12px;fill:#fff;">T<tspan x="880.85px " y="447.008px ">a</tspan>rget y = S<tspan x="928.598px 934.19px 939.446px " y="447.008px 447.008px 447.008px ">now</tspan> Dep<tspan x="966.422px " y="447.008px ">t</tspan>h (m)</text><path d="M837.567,483.667l194.788,-0c6.94,-0 12.567,5.184 12.567,11.579l-0,31.842c-0,6.394 -5.627,11.579 -12.567,11.579l-194.788,-0c-6.94,-0 -12.567,-5.185 -12.567,-11.579l-0,-31.842c-0,-6.395 5.627,-11.579 12.567,-11.579Z" style="fill:#ee9b00;fill-rule:nonzero;"/><g transform="matrix(20,0,0,20,991.369,508.967)"></g><text x="866.989px" y="508.967px" style="font-family:'Akrobat-ExtraBold', 'Akrobat';font-weight:800;font-size:20px;fill:#fff;">T<tspan x="874.669px " y="508.967px ">r</tspan>ain / T<tspan x="929.069px " y="508.967px ">e</tspan>st S<tspan x="966.609px " y="508.967px ">p</tspan>lit</text><g transform="matrix(12,0,0,12,981.041,527.831)"></g><text x="888.605px" y="527.831px" style="font-family:'Akrobat-SemiBold', 'Akrobat';font-weight:600;font-size:12px;fill:#fff;">80 % train · 20 % test</text></g><g id="_4.-Random-Forest" serif:id="4. Random Forest"><path d="M1066,85l178,0c3.313,0 6,4.318 6,9.643l0,25.714c0,5.325 -2.687,9.643 -6,9.643l-178,0c-3.313,0 -6,-4.318 -6,-9.643l0,-25.714c0,-5.325 2.687,-9.643 6,-9.643Z" style="fill:#bb3e03;fill-rule:nonzero;"/><g transform="matrix(24,0,0,24,1224.92,114.268)"></g><text x="1086.42px" y="114.268px" style="font-family:'Akrobat-Black', 'Akrobat';font-weight:900;font-size:24px;fill:#fff;">4 ML Algorithm</text><path d="M1070,358.667l170,-0c5.522,-0 10,7.009 10,15.652l0,148.695c0,8.644 -4.478,15.653 -10,15.653l-170,-0c-5.522,-0 -10,-7.009 -10,-15.653l0,-148.695c0,-8.643 4.478,-15.652 10,-15.652Z" style="fill:#bb3e03;fill-rule:nonzero;"/><g transform="matrix(1,0,0,1,1099.52,382.29)"><text x="-9.964px" y="0px" style="font-family:'Akrobat-ExtraBold', 'Akrobat';font-weight:800;font-size:20px;fill:#fff;">Hi<tspan x="5.356px " y="0px ">s</tspan>togram-based</text><text x="-12.704px" y="30px" style="font-family:'Akrobat-ExtraBold', 'Akrobat';font-weight:800;font-size:20px;fill:#fff;">Gradient B<tspan x="66.916px " y="30px ">o</tspan>osting</text><g transform="matrix(20,0,0,20,116.706,60)"></g><text x="-5.394px" y="60px" style="font-family:'Akrobat-ExtraBold', 'Akrobat';font-weight:800;font-size:20px;fill:#fff;">Regression T<tspan x="91.606px " y="60px ">r</tspan>ee</text></g><path d="M1081.1,466.17l148,-0c3.313,-0 6,2.687 6,6l-0,40c-0,3.313 -2.687,6 -6,6l-148,-0c-3.313,-0 -6,-2.687 -6,-6l-0,-40c-0,-3.313 2.687,-6 6,-6Z" style="fill:#e9d8a6;fill-opacity:0.6;fill-rule:nonzero;"/><g transform="matrix(12,0,0,12,1187.95,480.958)"></g><text x="1121.96px" y="480.958px" style="font-family:'Akrobat-SemiBold', 'Akrobat';font-weight:600;font-size:12px;fill:#fff;">max_iter = 300</text><g transform="matrix(12,0,0,12,1189,494.958)"></g><text x="1120.64px" y="494.958px" style="font-family:'Akrobat-SemiBold', 'Akrobat';font-weight:600;font-size:12px;fill:#fff;">max_dep<tspan x="1160.57px " y="494.958px ">t</tspan>h = 12</text><g transform="matrix(12,0,0,12,1205.75,509.958)"></g><text x="1104.15px" y="509.958px" style="font-family:'Akrobat-SemiBold', 'Akrobat';font-weight:600;font-size:12px;fill:#fff;">min_samples_leaf = 20</text></g><g id="_5.-Outputs" serif:id="5. Outputs"><path d="M1271,85l193,0c3.313,0 6,4.318 6,9.643l0,25.714c0,5.325 -2.687,9.643 -6,9.643l-193,0c-3.313,0 -6,-4.318 -6,-9.643l0,-25.714c0,-5.325 2.687,-9.643 6,-9.643Z" style="fill:#9b2226;fill-rule:nonzero;"/><g transform="matrix(24,0,0,24,1411.88,113.884)"></g><text x="1322.48px" y="113.884px" style="font-family:'Akrobat-Black', 'Akrobat';font-weight:900;font-size:24px;fill:#fff;">5 Outputs</text><path d="M1275.88,448.667l185,-0c5.522,-0 10,6.2 10,13.846l-0,62.308c-0,7.645 -4.478,13.846 -10,13.846l-185,-0c-5.522,-0 -10,-6.201 -10,-13.846l-0,-62.308c-0,-7.646 4.478,-13.846 10,-13.846Z" style="fill:#9b2226;fill-rule:nonzero;"/><g transform="matrix(20,0,0,20,1422.45,475.647)"></g><text x="1313.45px" y="475.647px" style="font-family:'Akrobat-ExtraBold', 'Akrobat';font-weight:800;font-size:20px;fill:#fff;">Model Metrics</text><g transform="matrix(1,0,0,1,1324.51,498.691)"><text x="0px" y="0px" style="font-family:'Akrobat-Bold', 'Akrobat';font-weight:700;font-size:15px;fill:#fff;">R</text><text x="7.56px" y="0px" style="font-family:'Arial-BoldMT', 'Arial', sans-serif;font-weight:700;font-size:15px;fill:#fff;">²</text><g transform="matrix(15,0,0,15,87.2701,0)"></g><text x="15.78px" y="0px" style="font-family:'Akrobat-Bold', 'Akrobat';font-weight:700;font-size:15px;fill:#fff;">· MAE · RMS<tspan x="80.355px " y="0px ">E</tspan></text></g><g transform="matrix(12,0,0,12,1415.43,519.744)"></g><text x="1321.02px" y="519.744px" style="font-family:'Akrobat-SemiBold', 'Akrobat';font-weight:600;font-size:12px;fill:#fff;">ev<tspan x="1331.01px " y="519.744px ">a</tspan>luated on test set</text><path d="M1275,550.549l185,-0c5.522,-0 10,4.478 10,10l0,35c0,5.522 -4.478,10 -10,10l-185,-0c-5.522,-0 -10,-4.478 -10,-10l0,-35c0,-5.522 4.478,-10 10,-10Z" style="fill:#9b2226;fill-rule:nonzero;"/><g transform="matrix(20,0,0,20,1442.4,574.449)"></g><text x="1291.92px" y="574.449px" style="font-family:'Akrobat-ExtraBold', 'Akrobat';font-weight:800;font-size:20px;fill:#fff;">F<tspan x="1300px " y="574.449px ">e</tspan>ature Importance</text><g transform="matrix(12,0,0,12,1426.96,593.301)"></g><text x="1307.37px" y="593.301px" style="font-family:'Akrobat-SemiBold', 'Akrobat';font-weight:600;font-size:12px;fill:#fff;">mean decr<tspan x="1355.21px " y="593.301px ">e</tspan>ase in impurity</text><path d="M1275,615.549l185,-0c5.522,-0 10,4.478 10,10l0,35c0,5.522 -4.478,10 -10,10l-185,-0c-5.522,-0 -10,-4.478 -10,-10l0,-35c0,-5.522 4.478,-10 10,-10Z" style="fill:#9b2226;fill-rule:nonzero;"/><g transform="matrix(20,0,0,20,1410.34,639.898)"></g><text x="1318.78px" y="639.898px" style="font-family:'Akrobat-ExtraBold', 'Akrobat';font-weight:800;font-size:20px;fill:#fff;">S<tspan x="1328.12px " y="639.898px ">c</tspan>atter Grid</text><g transform="matrix(12,0,0,12,1431.42,657.488)"></g><text x="1296.9px" y="657.488px" style="font-family:'Akrobat-SemiBold', 'Akrobat';font-weight:600;font-size:12px;fill:#fff;">sno<tspan x="1312.67px " y="657.488px ">w</tspan> dep<tspan x="1339.22px " y="657.488px ">t</tspan>h vs. each pr<tspan x="1399.5px " y="657.488px ">e</tspan>dictor</text></g><g id="Legende"><text x="50px" y="712px" style="font-family:'SegoeUI-Bold', 'Segoe UI', sans-serif;font-weight:700;font-size:12px;fill:#37474f;">Legend</text><path d="M54,722l10,0c2.209,0 4,1.791 4,4l0,10c0,2.209 -1.791,4 -4,4l-10,0c-2.209,0 -4,-1.791 -4,-4l0,-10c0,-2.209 1.791,-4 4,-4Z" style="fill:#005f73;fill-rule:nonzero;"/><text x="76px" y="735px" style="font-family:'SegoeUI', 'Segoe UI', sans-serif;font-size:11px;fill:#37474f;">Input raster data (U<tspan x="170.01px 176.354px 183.186px " y="735px 735px 735px ">AV </tspan>DSM, 10 cm)</text><path d="M54,748l10,0c2.209,0 4,1.791 4,4l0,10c0,2.209 -1.791,4 -4,4l-10,0c-2.209,0 -4,-1.791 -4,-4l0,-10c0,-2.209 1.791,-4 4,-4Z" style="fill:#0a9396;fill-rule:nonzero;"/><text x="76px" y="761px" style="font-family:'SegoeUI', 'Segoe UI', sans-serif;font-size:11px;fill:#37474f;">Raster pro<tspan x="125.897px " y="761px ">c</tspan>essing (snow depth)</text><path d="M279,722l10,0c2.209,0 4,1.791 4,4l0,10c0,2.209 -1.791,4 -4,4l-10,0c-2.209,0 -4,-1.791 -4,-4l0,-10c0,-2.209 1.791,-4 4,-4Z" style="fill:#94d2bd;fill-rule:nonzero;"/><text x="301px" y="735px" style="font-family:'SegoeUI', 'Segoe UI', sans-serif;font-size:11px;fill:#37474f;">T<tspan x="305.689px 312.134px " y="735px 735px ">op</tspan>ographic index computation (whitebox<tspan x="506.267px " y="735px ">)</tspan></text><path d="M279,748l10,0c2.209,0 4,1.791 4,4l0,10c0,2.209 -1.791,4 -4,4l-10,0c-2.209,0 -4,-1.791 -4,-4l0,-10c0,-2.209 1.791,-4 4,-4Z" style="fill:#ee9b00;fill-rule:nonzero;"/><text x="301px" y="761px" style="font-family:'SegoeUI', 'Segoe UI', sans-serif;font-size:11px;fill:#37474f;">Feature<tspan x="337.25px " y="761px "> </tspan>engineering &amp; sampling</text><path d="M514,722l10,0c2.209,0 4,1.791 4,4l0,10c0,2.209 -1.791,4 -4,4l-10,0c-2.209,0 -4,-1.791 -4,-4l0,-10c0,-2.209 1.791,-4 4,-4Z" style="fill:#bb3e03;fill-rule:nonzero;"/><text x="536px" y="735px" style="font-family:'SegoeUI', 'Segoe UI', sans-serif;font-size:11px;fill:#37474f;">Machine learning (sklearn HistGradientBoostingR<tspan x="773.306px 779.058px " y="735px 735px ">eg</tspan>re<tspan x="795.112px " y="735px ">s</tspan>sor)</text><path d="M514,748l10,0c2.209,0 4,1.791 4,4l0,10c0,2.209 -1.791,4 -4,4l-10,0c-2.209,0 -4,-1.791 -4,-4l0,-10c0,-2.209 1.791,-4 4,-4Z" style="fill:#9b2226;fill-rule:nonzero;"/><text x="536px" y="761px" style="font-family:'SegoeUI', 'Segoe UI', sans-serif;font-size:11px;fill:#37474f;">Eva<tspan x="552.43px " y="761px ">l</tspan>uation &amp; visualization outputs</text><path d="M50,779l0,12l16,-6l-16,-6Z" style="fill-rule:nonzero;"/><g transform="matrix(11,0,0,11,100.906,789)"></g><g transform="matrix(11,0,0,11,104.346,789)"></g><text x="76.494px" y="789px" style="font-family:'SegoeUI', 'Segoe UI', sans-serif;font-size:11px;fill:#37474f;">data ﬂow</text></g><path d="M810,328.651l0,172.365c0,5.602 -4.548,10.151 -10.151,10.151l-289.698,-0c-5.603,-0 -10.151,-4.549 -10.151,-10.151l-0,-172.365c-0,-5.603 4.548,-10.151 10.151,-10.151l289.698,-0c5.603,-0 10.151,4.548 10.151,10.151Z" style="fill:none;stroke:#005f73;stroke-width:2px;"/><path d="M834.928,704.505l-0,83.236c-0,9.646 -7.831,17.478 -17.477,17.478l-766.635,-0c-9.646,-0 -17.477,-7.832 -17.477,-17.478l-0,-83.236c-0,-9.646 7.831,-17.478 17.477,-17.478l766.635,0c9.646,0 17.477,7.832 17.477,17.478Z" style="fill:none;stroke:#000;stroke-width:2px;"/></svg>